{"title":"Brideshead Revisited BBC 1981 E01","uid":11873742,"size":733978624,"categoryP":"other","categoryS":"other","magnet":"?xt=urn:btih:e9b4adc75d42945ff1d0037287db6b7187cc07a9&amp;dn=Brideshead+Revisited+BBC+1981+E01&amp;tr=udp%3A%2F%2Ftracker.openbittorrent.com%3A80&amp;tr=udp%3A%2F%2Fopen.demonii.com%3A1337&amp;tr=udp%3A%2F%2Ftracker.coppersurfer.tk%3A6969&amp;tr=udp%3A%2F%2Fexodus.desync.com%3A6969","seeders":0,"leechers":1,"uploader":"toots2boots","files":1,"time":1430491284,"description":"When Oxford under-graduate Charles Ryder (Jeremy Irons) meets the charismatic Sebastian Flyte (Anthony Andrews) it is the beginning of a devoted friendship, until Sebastian sinks deep into alcoholism and distances himself from those he loves. Charles escapes to Paris to train as an artist finding solace in his career as an architectural painter and ends up in an unhappy marriage. A chance reunion with Sebastian's sister Julia (Diana Quick) revives his love of life as they embark on a passionate affair, only for their happiness to be shattered by the death of Julia's father, Lord Marchmain.\nEpisode 1: &quot;Et in Arcadia Ego&quot; (Original UK airdate 12 October 1981; 100 minutes) In the spring of 1944, disillusioned Army captain Charles Ryder is moving his company to a new Brigade Headquarters at a secret location he discovers is Brideshead, once home to the Marchmain family and the scene of both pleasant and anguished visits for the younger Charles.\nIn 2000, the serial placed tenth on a list of the 100 Greatest British Television Programmes compiled by the British Film Institute, based on a poll of industry professionals. In 2007, the serial was listed as one of Time magazine's &quot;100 Best TV Shows of All-Time&quot;.In 2010 it was placed second in The Guardian newspaper's list of the top 50 TV dramas of all time.\n\n\nGeneral\nComplete name                            : F:TV SeriesBrideshead Revisited BBC 1981Brideshead Revisited.BBC.1981.E01.Et.in.Arcadia.EgoBrideshead.Revisited.E01.Et.in.Arcadia.Ego.XviD.AC3.avi\nFormat                                   : AVI\nFormat/Info                              : Audio Video Interleave\nFile size                                : 700 MiB\nDuration                                 : 1h 40mn\nOverall bit rate mode                    : Variable\nOverall bit rate                         : 975 Kbps\nWriting application                      : VirtualDubMod 1.5.4.1 (build 2178/release)\nWriting library                          : VirtualDubMod build 2178/release\n\nVideo\nID                                       : 0\nFormat                                   : MPEG-4 Visual\nFormat profile                           : Advanced Simple@L5\nFormat settings, BVOP                    : 1\nFormat settings, QPel                    : No\nFormat settings, GMC                     : No warppoints\nFormat settings, Matrix                  : Custom\nCodec ID                                 : XVID\nCodec ID/Hint                            : XviD\nDuration                                 : 1h 40mn\nBit rate                                 : 841 Kbps\nWidth                                    : 512 pixels\nHeight                                   : 384 pixels\nDisplay aspect ratio                     : 4:3\nFrame rate                               : 25.000 fps\nColor space                              : YUV\nChroma subsampling                       : 4:2:0\nBit depth                                : 8 bits\nScan type                                : Progressive\nCompression mode                         : Lossy\nBits/(Pixel*Frame)                       : 0.171\nStream size                              : 604 MiB (86%)\nWriting library                          : XviD 1.1.2 (UTC 2006-11-01)\n\nAudio\nID                                       : 1\nFormat                                   : MPEG Audio\nFormat version                           : Version 1\nFormat profile                           : Layer 3\nMode                                     : Joint stereo\nMode extension                           : MS Stereo\nCodec ID                                 : 55\nCodec ID/Hint                            : MP3\nDuration                                 : 1h 40mn\nBit rate mode                            : Variable\nBit rate                                 : 121 Kbps\nNominal bit rate                         : 128 Kbps\nChannel(s)                               : 2 channels\nSampling rate                            : 48.0 KHz\nCompression mode                         : Lossy\nDelay relative to video                  : 24ms\nStream size                              : 86.6 MiB (12%)\nAlignment                                : Split accross interleaves\nInterleave, duration                     : 24 ms (0.60 video frame)\nInterleave, preload duration             : 573 ms\nWriting library                          : LAME3.97 \nEncoding settings                        : -m j -V 4 -q 2 -lowpass 17 --abr 128","torrent":{"xt":"urn:btih:e9b4adc75d42945ff1d0037287db6b7187cc07a9","amp;dn":"Brideshead+Revisited+BBC+1981+E01","amp;tr":["udp%3A%2F%2Ftracker.openbittorrent.com%3A80","udp%3A%2F%2Fopen.demonii.com%3A1337","udp%3A%2F%2Ftracker.coppersurfer.tk%3A6969","udp%3A%2F%2Fexodus.desync.com%3A6969"],"infoHash":"e9b4adc75d42945ff1d0037287db6b7187cc07a9","infoHashBuffer":{"type":"Buffer","data":[233,180,173,199,93,66,148,95,241,208,3,114,135,219,107,113,135,204,7,169]},"announce":[],"urlList":[]}}